<svg xmlns="http://www.w3.org/2000/svg" xmlns:xlink="http://www.w3.org/1999/xlink" width="140" height="80" viewBox="0 0 96 30"><defs><path id="ckbka" d="M418.32 74.46a5.13 5.13 0 0 1-1.47 2.57 2.9 2.9 0 0 1-2.09.76 5.9 5.9 0 0 1-2.15-.54 8.21 8.21 0 0 1-1.95-1.26 39.39 39.39 0 0 0 2.07-6.34c1.88-.35 3.4-.08 4.58.81 1.17.9 1.5 2.23 1.01 4zm-17.48 3.81c-.63.14-1.16.11-1.57-.08-.6-.3-.81-.75-.62-1.33.22-.74.91-1.09 2.07-1.03.94.02 1.78.26 2.53.7a3.49 3.49 0 0 1-2.4 1.74zm20.17-23.94a25.36 25.36 0 0 0-7-1c-6.1-.05-10.86 1.3-14.28 4.02-2.02 1.6-3.07 3.54-3.15 5.8-.08 2.27 1.06 4.08 3.02 4.52 1.96.43 3.94-.89 4.8-2.78.88-1.89-.2-4.13 1.56-5.44 1.75-1.31 4.29-1.92 7.6-1.8 1.9.08 3.46.44 4.68 1.1a2.8 2.8 0 0 1 1.57 3.04 3.9 3.9 0 0 1-2.07 3.16 7.79 7.79 0 0 1-3.9 1.06 26.79 26.79 0 0 1 2.16-4.89c-.16-.52-1-.89-2.52-1.1-1.52-.2-2.7-.1-3.52.32-.78.8-1.49 1.98-2.14 3.56a50.45 50.45 0 0 0-1.84 5.42 62.05 62.05 0 0 1-1.2 3.94 14.03 14.03 0 0 0-5.72-1.41 7.93 7.93 0 0 0-4.82 1.4 4.95 4.95 0 0 0-2.22 3.86c-.16 1.96.58 3.4 2.22 4.3 1.64.92 3.77 1.32 6.4 1.2a12.87 12.87 0 0 0 7.58-2.68c1.24.96 2.67 1.67 4.3 2.13 1.63.45 3.22.64 4.77.56a9.9 9.9 0 0 0 6.33-2.5 8.07 8.07 0 0 0 2.7-5.83 6.2 6.2 0 0 0-1.48-4.28 7.59 7.59 0 0 0-4.4-2.5 7.44 7.44 0 0 0 4.7-1.46 5.88 5.88 0 0 0 2.5-4.06 5.44 5.44 0 0 0-1.53-4.7 11.31 11.31 0 0 0-5.1-2.96z"/><path id="ckbkb" d="M459.24 74.71c-.72.02-1.24.44-1.57 1.24-.33.8-.27 1.38.2 1.74-.36.35-.8.54-1.32.54-.72 0-1.16-.63-1.32-1.88a8.1 8.1 0 0 1 .33-3.67c.33-1.24.8-2.2 1.4-2.88.6-.68 1.16-1.01 1.66-1.01.66.02 1.04.63 1.12 1.82.08 1.18-.08 2.55-.5 4.1zm12.84-.29c-.6-.41-1-.5-1.16-.25-1.72 2.65-3.52 3.86-5.42 3.65a12.09 12.09 0 0 0 1.76-4.79c.2-1.61.04-3.05-.48-4.3a6.76 6.76 0 0 0-2.67-3.11 8.64 8.64 0 0 0-4.54-1.3c-2.81-.09-5.3.58-7.43 2-2.14 1.42-3.57 3.63-4.29 6.6-.12.53-.21 1.02-.28 1.5a9.97 9.97 0 0 1-3.28 3.48c-1.32.8-2.46 1.04-3.4.74-.66-.22-.83-.99-.51-2.31a13.2 13.2 0 0 1 1.97-4.23c.38-.58.6-1.16.64-1.74a4.06 4.06 0 0 0-.15-1.51 4.3 4.3 0 0 0-.97-1.47 16.1 16.1 0 0 0-1.3-1.28c-.37-.31-.93-.75-1.68-1.33-.77-.58-1.29-1-1.56-1.24.09-.8.05-1.5-.12-2.07-.4-1.28-1.26-1.9-2.6-1.9-1.28 0-2.33.54-3.16 1.65-1.14 1.54-1.02 3.33.34 5.38a38.2 38.2 0 0 1-3.94 8.5c-.14.24-.06.5.23.78.29.27.6.43.95.5.34.05.61-.03.8-.25A34.75 34.75 0 0 0 433.7 68c1.18.6 1.46 1.46.83 2.57-2.05 3.58-2.76 6.48-2.13 8.7.62 2.2 2.43 3.33 5.44 3.4a13.37 13.37 0 0 0 6.69-1.58 10.1 10.1 0 0 0 2.24-1.84l1.04-1.17c.24.8.63 1.49 1.17 2.08 1.5 1.63 3.6 2.46 6.34 2.46 3.08 0 5.68-.78 7.78-2.32.69.1 1.46.13 2.32.06.85-.07 1.68-.2 2.49-.41.8-.2 1.63-.7 2.53-1.5.88-.78 1.67-1.82 2.4-3.12.1-.2-.15-.5-.75-.91z"/><path id="ckbkc" d="M487.81 54.62c-.58-.58-1.83-.92-3.77-1.03-2.07-.11-3.2.2-3.39.95-.8 3.04-2.27 9.08-4.4 18.14-.07.36.35.66 1.27.91a7.8 7.8 0 0 0 2.96.19c1.05-.13 1.67-.47 1.87-1.02.72-2.12 1.72-5.25 3.02-9.38l2.6-8.26c.06-.17 0-.33-.16-.5z"/><path id="ckbkd" d="M477.92 76.16a4.1 4.1 0 0 0-2.72.9 3.06 3.06 0 0 0-1.18 2.24 2.8 2.8 0 0 0 .85 2.28c.62.61 1.47.91 2.55.91a3.8 3.8 0 0 0 2.6-.9 3.5 3.5 0 0 0 1.2-2.29 2.7 2.7 0 0 0-.76-2.23c-.6-.6-1.44-.91-2.54-.91z"/></defs><g><g transform="translate(-392 -53)"><use fill="#5583ff" xlink:href="#ckbka"/></g><g transform="translate(-392 -53)"><use fill="#5583ff" xlink:href="#ckbkb"/></g><g transform="translate(-392 -53)"><use fill="#5583ff" xlink:href="#ckbkc"/></g><g transform="translate(-392 -53)"><use fill="#5583ff" xlink:href="#ckbkd"/></g></g></svg>