<svg width="161" height="34" viewBox="0 0 161 34" fill="none" xmlns="http://www.w3.org/2000/svg" class="vB7tEupQupcKsrRfwzDN"><path d="M25.4564 0H8.48546C3.7991 0 0 3.80561 0 8.5V25.5C0 30.1944 3.7991 34 8.48546 34H25.4564C30.1427 34 33.9418 30.1944 33.9418 25.5V8.5C33.9418 3.80561 30.1427 0 25.4564 0ZM25.4564 25.5H12.7282H8.48546V21.25V8.5H12.7282V21.25H25.4564V25.5Z" fill="url(#i2)"></path><path d="M101.958 8.5C99.8254 8.5 97.8976 9.39104 96.5222 10.8193C95.1467 9.39104 93.2189 8.5 91.0862 8.5C89.8977 8.5 88.773 8.77705 87.7715 9.26885V8.5H83.5288V25.5H87.7715V16.0703C87.7715 14.2395 89.2585 12.75 91.0862 12.75C92.9139 12.75 94.4008 14.2395 94.4008 16.0703V25.5H98.6435V16.0703C98.6435 14.2395 100.13 12.75 101.958 12.75C103.786 12.75 105.273 14.2395 105.273 16.0703V25.5H109.516V16.0703C109.516 11.896 106.125 8.5 101.958 8.5Z" fill="white"></path><path d="M58.2958 6.99736L55.4654 9.83264C54.1488 8.99048 52.5874 8.5 50.9127 8.5C46.2338 8.5 42.4272 12.313 42.4272 17C42.4272 21.687 46.2338 25.5 50.9127 25.5C53.5026 25.5 55.1554 26.7587 55.1554 27.625C55.1554 28.4913 53.5026 29.75 50.9127 29.75C48.3228 29.75 46.67 28.4913 46.67 27.625H42.4272C42.4272 31.1998 46.1545 34 50.9127 34C55.6709 34 59.3982 31.1998 59.3982 27.625C59.3982 25.8108 58.4369 24.197 56.8692 23.0466C58.4292 21.5043 59.3982 19.3637 59.3982 17C59.3982 15.53 59.0233 14.1461 58.3649 12.9386L61.296 10.0025L58.2958 6.99736ZM46.67 17C46.67 14.6565 48.5732 12.75 50.9127 12.75C53.2522 12.75 55.1554 14.6565 55.1554 17C55.1554 19.3435 53.2522 21.25 50.9127 21.25C48.5732 21.25 46.67 19.3435 46.67 17Z" fill="white"></path><path d="M159.102 17C159.102 15.5299 158.727 14.146 158.069 12.9386L161 10.0026L158 6.99736L155.17 9.83264C153.853 8.99048 152.291 8.5 150.617 8.5C145.938 8.5 142.131 12.313 142.131 17C142.131 21.687 145.938 25.5 150.617 25.5C153.207 25.5 154.86 26.7587 154.86 27.625C154.86 28.4913 153.207 29.75 150.617 29.75C148.027 29.75 146.374 28.4913 146.374 27.625H142.131C142.131 31.1998 145.859 34 150.617 34C155.375 34 159.102 31.1998 159.102 27.625C159.102 25.8108 158.141 24.197 156.573 23.0466C158.133 21.5043 159.102 19.3637 159.102 17ZM146.374 17C146.374 14.6565 148.277 12.75 150.617 12.75C152.956 12.75 154.86 14.6565 154.86 17C154.86 19.3435 152.956 21.25 150.617 21.25C148.277 21.25 146.374 19.3435 146.374 17Z" fill="white"></path><path d="M75.0431 9.64351C73.794 8.91783 72.3454 8.5 70.8004 8.5C66.1215 8.5 62.3149 12.313 62.3149 17C62.3149 21.687 66.1215 25.5 70.8004 25.5C72.3454 25.5 73.794 25.0822 75.0431 24.3565V25.5H79.2859V8.5H75.0431V9.64351ZM70.8004 21.25C68.4609 21.25 66.5577 19.3435 66.5577 17C66.5577 14.6565 68.4609 12.75 70.8004 12.75C73.1399 12.75 75.0431 14.6565 75.0431 17C75.0431 19.3435 73.1399 21.25 70.8004 21.25Z" fill="white"></path><path d="M130.729 8.5C129.184 8.5 127.735 8.91783 126.486 9.64351V8.5H122.244V25.5H126.486V17C126.486 14.6565 128.39 12.75 130.729 12.75C133.069 12.75 134.972 14.6565 134.972 17V25.5H139.215V17C139.215 12.313 135.408 8.5 130.729 8.5Z" fill="white"></path><path d="M118.001 8.5H113.758V25.5H118.001V8.5Z" fill="white"></path><path d="M25.4564 1.0625C29.5505 1.0625 32.8811 4.39888 32.8811 8.5V25.5C32.8811 29.6011 29.5505 32.9375 25.4564 32.9375H8.48546C4.39136 32.9375 1.06068 29.6011 1.06068 25.5V8.5C1.06068 4.39888 4.39136 1.0625 8.48546 1.0625H25.4564ZM25.4564 0H8.48546C3.7991 0 0 3.80561 0 8.5V25.5C0 30.1944 3.7991 34 8.48546 34H25.4564C30.1427 34 33.9418 30.1944 33.9418 25.5V8.5C33.9418 3.80561 30.1427 0 25.4564 0Z" fill="url(#i1)"></path><g opacity="0.5"><path d="M8.48549 9.03125H7.4248V26.5625H24.9261V25.5H8.48549V9.03125Z" fill="url(#i0)"></path></g><defs><linearGradient id="i2" x1="31.2865" y1="2.65986" x2="2.85502" y2="31.0427" gradientUnits="userSpaceOnUse"><stop stop-color="#70FFFF"></stop><stop offset="0.0529" stop-color="#59FFFF"></stop><stop offset="0.1744" stop-color="#29FFFF"></stop><stop offset="0.2674" stop-color="#0BFFFF"></stop><stop offset="0.32" stop-color="#00FFFF"></stop><stop offset="0.4846" stop-color="#0CE5FF"></stop><stop offset="0.834" stop-color="#2AA3FF"></stop><stop offset="0.9954" stop-color="#3983FF"></stop></linearGradient><linearGradient id="i1" x1="31.4565" y1="2.4896" x2="2.43572" y2="31.4607" gradientUnits="userSpaceOnUse"><stop stop-color="#B5FFFF"></stop><stop offset="0.1833" stop-color="#9FFFFF"></stop><stop offset="0.32" stop-color="#94FFFF"></stop><stop offset="0.4846" stop-color="#81E5FF" stop-opacity="0.7563"></stop><stop offset="0.8341" stop-color="#51A3FF" stop-opacity="0.2389"></stop><stop offset="0.9954" stop-color="#3983FF" stop-opacity="0"></stop></linearGradient><radialGradient id="i0" cx="0" cy="0" r="1" gradientUnits="userSpaceOnUse" gradientTransform="translate(7.95515 26.0312) rotate(-90) scale(17 16.9709)"><stop stop-color="#B5FFFF"></stop><stop offset="0.485844" stop-color="#98FCFE" stop-opacity="0.9"></stop><stop offset="0.883467" stop-color="#519CFF" stop-opacity="0.24"></stop><stop offset="0.978241" stop-color="#519CFF" stop-opacity="0"></stop></radialGradient></defs></svg>