<svg width="250" height="153" viewBox="0 0 608 153" fill="none" xmlns="http://www.w3.org/2000/svg"><path d="M0 14.113h36.595v126.832H32.67V18.192H0v-4.08zm0 10.04h26.386v116.792h-4.083V28.233H0v-4.08zM0 34.51h16.334v106.436h-4.083V38.588H0v-4.08zM77.683 35.889C66.908 46.636 61.52 59.564 61.52 74.689c0 15.124 5.387 28.021 16.162 38.721 10.774 10.7 23.732 16.018 38.888 16.018 8.544 0 16.413-1.709 23.559-5.114l-3.078-3.075c-6.251 2.73-13.083 4.111-20.481 4.111-14.088 0-26.103-4.959-36.045-14.874-9.942-9.916-14.921-21.855-14.921-35.788 0-14.057 4.979-26.044 14.92-35.96 9.943-9.915 21.958-14.889 36.046-14.889 13.178 0 24.548 4.346 34.113 13.038l2.844-2.84c-10.382-9.523-22.696-14.277-36.957-14.277-15.156 0-28.114 5.381-38.888 16.129z" fill="#FAFAFA"/><path d="M84.999 42.933c-8.749 8.755-13.115 19.33-13.115 31.755 0 12.3 4.366 22.828 13.115 31.583 8.748 8.755 19.271 13.132 31.568 13.132 5.655 0 10.932-.926 15.832-2.777l-3.188-3.185c-3.958 1.255-8.167 1.899-12.644 1.899-11.229 0-20.81-3.954-28.726-11.893s-11.874-17.51-11.874-28.743c0-11.233 3.958-20.85 11.874-28.821 7.916-7.97 17.497-12.003 28.726-12.003 10.367 0 19.335 3.405 26.874 10.23l2.89-2.887c-8.387-7.61-18.298-11.422-29.764-11.422-12.297 0-22.82 4.377-31.568 13.132z" fill="#FAFAFA"/><path d="M144.761 128.943c-8.481 4.503-17.873 6.762-28.192 6.762-16.79 0-31.161-5.978-43.098-17.917-11.936-11.94-17.92-26.311-17.92-43.114 0-16.914 5.968-31.317 17.92-43.193C85.408 19.588 99.78 13.64 116.57 13.64c15.941 0 29.7 5.367 41.275 16.082l2.199-2.196c.236-.236.471-.455.722-.66-12.344-11.53-27.077-17.305-44.196-17.305-17.984 0-33.328 6.355-46.035 19.079-12.706 12.708-19.067 28.068-19.067 46.033 0 17.98 6.361 33.323 19.067 46.032 12.707 12.724 28.051 19.078 46.035 19.078 11.481 0 21.894-2.604 31.239-7.798l-3.047-3.043z" fill="#FAFAFA"/><path d="M161.975 35.386l-43.05 42.988 13.397 28.555 32.276 30.108 30.014-22.907 23.748-22.843-.55-13.509-41.904-41.843-13.931-.55z" fill="#15232D"/><path d="M159.634 115.511l7.303-7.296a4.162 4.162 0 0 0 0-5.899 4.175 4.175 0 0 0-5.905 0l-7.303 7.296a4.164 4.164 0 0 0 0 5.899 4.173 4.173 0 0 0 5.905 0z" fill="url(#a)"/><path d="M149.819 105.706l7.303-7.296a4.164 4.164 0 0 0 0-5.899 4.175 4.175 0 0 0-5.906 0l-7.303 7.296a4.164 4.164 0 0 0 0 5.899 4.174 4.174 0 0 0 5.906 0z" fill="url(#b)"/><path d="M179.437 72.429l17.749 17.729 1.962 1.96.032.032c1.57 1.538 4.115 1.538 5.67-.031a4.02 4.02 0 0 0 .078-5.601l-24.941-24.93-7.727 7.719-5.937 5.93c-3.832 3.828-10.052 3.828-13.9 0l-2.843-2.84-4.099-4.094 20.606-20.585-8.23-8.221-34.726 34.673 9.503 9.492 4.963-4.958c3.785-3.78 9.926-3.78 13.711 0a9.664 9.664 0 0 1 2.843 6.872 9.71 9.71 0 0 1 6.879 2.84 9.62 9.62 0 0 1 2.827 7.06 9.621 9.621 0 0 1 7.068 2.825c1.916 1.914 2.858 4.439 2.842 6.965a9.663 9.663 0 0 1 6.974 2.84 9.645 9.645 0 0 1 2.591 4.676 4.038 4.038 0 0 0 1.917-1.067 4.033 4.033 0 0 0 0-5.696l-1.963-1.961-17.748-17.729a2.895 2.895 0 0 1 0-4.094 2.902 2.902 0 0 1 4.099 0l17.748 17.728 1.963 1.962a4.04 4.04 0 0 0 5.701 0 4.03 4.03 0 0 0 0-5.696l-1.963-1.96-17.748-17.73a2.895 2.895 0 0 1 0-4.094 2.888 2.888 0 0 1 4.099-.016z" fill="url(#c)"/><path d="M169.342 125.207l7.304-7.296a4.164 4.164 0 0 0 0-5.899 4.174 4.174 0 0 0-5.906 0l-7.303 7.295a4.165 4.165 0 0 0 0 5.9 4.175 4.175 0 0 0 5.905 0z" fill="url(#d)"/><path d="M147.32 82.72a4.173 4.173 0 0 0-5.905 0l-7.304 7.295a4.165 4.165 0 0 0 0 5.9 4.175 4.175 0 0 0 5.906 0l7.303-7.28a4.181 4.181 0 0 0 0-5.915z" fill="url(#e)"/><path d="M217.809 77.78l-7.035 7.028c1.884 3.687 1.287 8.331-1.807 11.422a9.754 9.754 0 0 1-6.926 2.871 9.802 9.802 0 0 1-2.874 6.919 9.76 9.76 0 0 1-6.927 2.872c0 2.51-.974 5.004-2.874 6.918a9.835 9.835 0 0 1-6.503 2.872 9.913 9.913 0 0 1-2.088 3.122l-7.508 7.499c-3.785 3.781-9.926 3.781-13.711 0-1.916-1.914-2.858-4.44-2.843-6.966a9.66 9.66 0 0 1-6.973-2.84 9.623 9.623 0 0 1-2.828-7.06 9.615 9.615 0 0 1-7.067-2.824 9.658 9.658 0 0 1-2.843-6.872 9.707 9.707 0 0 1-6.879-2.84c-3.252-3.248-3.707-8.221-1.382-11.955l-9.691-9.68-3.031 3.028c-2.576 2.573-2.576 6.746 0 9.335l47.935 47.884c2.576 2.573 6.753 2.573 9.344 0l47.998-47.947c2.576-2.573 2.576-6.746 0-9.335l-3.487-3.452z" fill="url(#f)"/><path d="M170.205 43.607l6.707-6.7-3.566-3.56c-2.575-2.574-6.769-2.574-9.344 0l-2.042 2.039 8.245 8.221z" fill="url(#g)"/><path d="M162.555 70.812l10.146-10.136 4.052-4.047 2.654-2.652.613-.612 6.706-6.7-5.685-5.679-27.439 27.394 2.435 2.432c1.79 1.788 4.711 1.788 6.518 0z" fill="url(#h)"/><path d="M213.711 73.669l-27.344-27.3-6.707 6.7 27.345 27.3 6.706-6.7z" fill="url(#i)"/><path d="M256.242 62.934a552.907 552.907 0 0 1-2.111-7.589c-.753-2.667-1.456-5.164-2.112-7.492l-4.175-14.96c-.728-2.643-1.553-5.529-2.451-8.705-.898-3.176-1.724-6.159-2.5-8.971h8.786c.801 3.225 1.651 6.643 2.549 10.208.874 3.564 1.699 6.983 2.5 10.208l4.49 17.99h.68l4.418-18.233c.752-3.128 1.577-6.474 2.475-10.062.874-3.589 1.675-6.96 2.452-10.111h8.738c.801 3.225 1.651 6.595 2.5 10.11.874 3.492 1.724 6.887 2.549 10.136l4.514 18.16h.68l4.515-18.257c.776-3.128 1.626-6.474 2.5-10.063.874-3.564 1.699-6.934 2.476-10.062h8.786c-.801 2.837-1.65 5.82-2.524 8.923-.874 3.128-1.699 5.989-2.427 8.632l-4.248 15.057c-.704 2.376-1.408 4.922-2.185 7.613-.752 2.692-1.456 5.19-2.112 7.468H285.2c-.801-3.055-1.651-6.28-2.501-9.674-.898-3.37-1.723-6.547-2.5-9.529l-4.514-17.36h-.68l-4.417 17.36c-.753 2.982-1.578 6.183-2.452 9.602-.874 3.419-1.699 6.62-2.476 9.601h-9.418zM315.828 62.934V15.217h30.414v6.62h-22.72v13.747h21.482v6.401h-21.482v14.33h22.89v6.62h-30.584zM355.656 62.934V15.217h7.865V56h22.84v6.934h-30.705zM415.107 63.807c-5.097 0-9.49-1.067-13.204-3.176-3.714-2.11-6.554-5.044-8.568-8.754-1.991-3.71-3.01-7.977-3.01-12.777 0-4.801.971-9.069 2.937-12.803 1.966-3.734 4.733-6.643 8.301-8.777 3.568-2.11 7.791-3.176 12.622-3.176 3.107 0 6.068.388 8.859 1.188 2.792.8 5.073 1.649 6.821 2.594l-.68 7.42c-2.597-1.576-5.073-2.716-7.452-3.395-2.378-.679-4.66-1.018-6.82-1.018-3.18 0-5.996.727-8.471 2.158-2.476 1.43-4.418 3.491-5.825 6.183-1.408 2.667-2.112 5.892-2.112 9.601 0 3.298.655 6.329 1.942 9.069 1.286 2.74 3.228 4.922 5.801 6.57 2.573 1.65 5.801 2.474 9.66 2.474 2.209 0 4.442-.291 6.675-.897 2.233-.607 4.393-1.673 6.457-3.177l.533 7.371c-1.917 1.14-4.174 1.988-6.747 2.522-2.573.533-5.097.8-7.719.8zM460.735 63.805c-4.151 0-7.767-.654-10.826-1.964-3.082-1.309-5.631-3.128-7.646-5.407-2.039-2.28-3.543-4.922-4.538-7.88-.996-2.958-1.481-6.11-1.481-9.432 0-4.631.922-8.802 2.791-12.535 1.869-3.734 4.612-6.717 8.204-8.899 3.617-2.206 8.035-3.297 13.278-3.297 5.315 0 9.757 1.115 13.374 3.321 3.592 2.23 6.313 5.213 8.132 8.947 1.818 3.734 2.742 7.905 2.742 12.463 0 4.704-.948 8.923-2.814 12.657-1.872 3.734-4.614 6.667-8.182 8.826-3.617 2.11-7.961 3.2-13.034 3.2zm-.17-6.62c3.665 0 6.675-.848 9.029-2.545 2.355-1.697 4.102-3.928 5.267-6.692 1.141-2.764 1.724-5.722 1.724-8.85 0-3.395-.607-6.45-1.845-9.19-1.238-2.74-3.034-4.898-5.413-6.522-2.378-1.6-5.291-2.4-8.762-2.4-3.592 0-6.578.848-8.981 2.521-2.378 1.673-4.175 3.88-5.364 6.644-1.19 2.764-1.796 5.746-1.796 8.947 0 3.225.582 6.207 1.747 8.947 1.165 2.74 2.937 4.946 5.316 6.619s5.413 2.522 9.078 2.522zM490.715 62.934c.315-2.545.631-5.067.947-7.589.316-2.521.656-5.261.996-8.195l2.015-15.833c.364-2.91.703-5.625.995-8.172.316-2.545.656-5.188.996-7.928h7.912c1.263 3.152 2.498 6.183 3.69 9.092 1.187 2.934 2.355 5.82 3.518 8.705l6.892 17.07h.56l6.773-17.07c1.139-2.91 2.283-5.795 3.422-8.656 1.139-2.886 2.355-5.916 3.619-9.141h7.864c.34 2.716.655 5.358.971 7.88.311 2.522.651 5.262 1.044 8.22l1.962 15.954c.364 2.91.704 5.577.996 8.074.316 2.473.631 5.02.947 7.59h-7.5c-.459-3.904-.924-7.614-1.335-11.154-.436-3.516-.847-6.813-1.211-9.868l-1.604-13.166h-.56l-5.365 14.184c-1.307 3.467-2.618 6.91-3.906 10.329a1782.713 1782.713 0 0 1-3.642 9.674h-5.289a1556.506 1556.506 0 0 0-3.786-9.601c-1.431-3.54-2.79-6.983-4.126-10.33l-5.657-14.256h-.56l-1.575 13.117c-.388 3.08-.78 6.377-1.216 9.917-.411 3.54-.871 7.25-1.383 11.153h-7.404zM556.57 62.934V15.217h30.412v6.62h-22.716v13.747h21.481v6.401h-21.481v14.33h22.888v6.62H556.57zM246.828 137.784V90.066h17.719c5.583 0 9.758 1.091 12.501 3.298 2.767 2.206 4.126 5.82 4.126 10.862 0 2.983-.558 5.65-1.651 7.953-1.092 2.328-2.912 4.146-5.437 5.456-2.524 1.309-5.922 1.964-10.219 1.964h-9.272v18.161h-7.767v.024zm17.185-41.316h-9.418v16.754h7.67c3.787 0 6.554-.703 8.302-2.085 1.747-1.382 2.621-3.662 2.621-6.862 0-2.328-.485-4.025-1.432-5.14-.946-1.116-2.136-1.819-3.543-2.183a19.267 19.267 0 0 0-4.2-.484zM281.931 137.784c.899-2.57 1.821-5.262 2.816-8.098.971-2.838 1.942-5.529 2.84-8.075l5.704-16.391c1.043-2.933 1.99-5.6 2.815-8 .826-2.377 1.675-4.753 2.5-7.154h10.219c.874 2.474 1.724 4.898 2.549 7.25a740.558 740.558 0 0 0 2.742 7.929l5.656 16.439c.922 2.643 1.845 5.334 2.816 8.098.97 2.789 1.893 5.456 2.791 8.002h-8.18a682.521 682.521 0 0 0-1.82-5.625 304.52 304.52 0 0 1-1.821-5.626h-20.024c-.607 1.867-1.214 3.758-1.869 5.674-.656 1.916-1.239 3.758-1.821 5.577h-7.913zm21.408-40.807l-7.767 23.567h16.044l-7.597-23.567h-.68zM332.702 137.784V90.066h16.942c5.583 0 9.806.994 12.67 2.983 2.864 1.988 4.296 5.406 4.296 10.28 0 2.255-.364 4.34-1.116 6.28-.728 1.94-1.942 3.589-3.592 4.946-1.651 1.383-3.86 2.328-6.603 2.861l5.025 6.62c1.116 1.479 2.306 3.031 3.544 4.68 1.262 1.673 2.475 3.297 3.689 4.849 1.19 1.576 2.233 2.982 3.156 4.219h-9.078c-1.432-1.964-2.816-3.855-4.127-5.674-1.335-1.819-2.621-3.589-3.908-5.334l-5.315-7.347h-7.864v18.379h-7.719v-.024zm16.675-41.316h-8.981v16.56h7.306c3.641 0 6.36-.655 8.132-1.964 1.796-1.309 2.669-3.613 2.669-6.862 0-2.352-.485-4.049-1.432-5.165a6.447 6.447 0 0 0-3.543-2.11 18.316 18.316 0 0 0-4.151-.46zM388.729 137.784V97.001h-15.68v-6.935h39.152v6.935h-15.632v40.783h-7.84zM419.795 137.784V90.066h6.967c2.645 3.758 5.17 7.323 7.573 10.741 2.379 3.419 4.757 6.814 7.111 10.184l9.418 13.36h.631v-34.26h7.403v47.717h-6.869c-2.184-3.103-4.466-6.353-6.869-9.771-2.378-3.395-5.024-7.105-7.864-11.178l-9.491-13.481h-.607v34.43h-7.403v-.024zM470.183 137.784V90.066h30.415v6.62h-22.721v13.747h21.482v6.402h-21.482v14.33h22.889v6.619h-30.583zM509.97 137.784V90.066h16.944c5.58 0 9.802.994 12.669 2.983 2.862 1.988 4.293 5.406 4.293 10.28 0 2.255-.363 4.34-1.115 6.28-.727 1.94-1.943 3.589-3.59 4.946-1.651 1.383-3.862 2.328-6.605 2.861l5.026 6.62c1.115 1.479 2.307 3.031 3.542 4.68 1.263 1.673 2.479 3.297 3.69 4.849 1.192 1.576 2.235 2.982 3.154 4.219h-9.075c-1.431-1.964-2.819-3.855-4.125-5.674-1.336-1.819-2.623-3.589-3.911-5.334l-5.365-7.371h-7.864v18.379h-7.668zm16.676-41.316h-8.984v16.56h7.308c3.643 0 6.361-.655 8.132-1.964 1.795-1.309 2.671-3.613 2.671-6.862 0-2.352-.488-4.049-1.436-5.165a6.434 6.434 0 0 0-3.542-2.11 18.451 18.451 0 0 0-4.149-.46zM569.675 138.657c-1.991 0-4.007-.17-6.045-.509-2.039-.339-3.93-.776-5.701-1.333-1.747-.534-3.159-1.067-4.25-1.601l.631-7.322a35.844 35.844 0 0 0 7.233 3.055 26.409 26.409 0 0 0 7.576 1.115c2.719 0 4.973-.533 6.768-1.624 1.8-1.091 2.695-2.837 2.695-5.286 0-2.304-1.019-4.049-3.035-5.237-2.01-1.188-4.829-2.328-8.419-3.419-2.986-.922-5.533-1.94-7.648-3.055-2.111-1.116-3.714-2.522-4.83-4.243-1.115-1.698-1.675-3.904-1.675-6.595 0-3.88 1.335-7.105 4.03-9.626 2.695-2.546 6.701-3.807 12.038-3.807 2.891 0 5.705.364 8.448 1.09 2.742.728 4.906 1.528 6.504 2.425l-.703 7.3c-2.063-1.359-4.246-2.402-6.625-3.105-2.354-.703-4.489-1.067-6.384-1.067-2.451 0-4.562.534-6.362 1.6-1.77 1.067-2.666 2.692-2.666 4.874 0 2.013.824 3.565 2.475 4.68 1.651 1.115 4.293 2.231 7.936 3.37 3.81 1.212 6.844 2.425 9.056 3.661 2.206 1.237 3.785 2.692 4.704 4.365.924 1.673 1.384 3.782 1.384 6.304 0 2.716-.603 5.116-1.819 7.226-1.211 2.109-3.082 3.758-5.581 4.97-2.474 1.188-5.729 1.794-9.735 1.794z" fill="#FAFAFA"/><defs><linearGradient id="a" x1="160.333" y1="30.73" x2="160.333" y2="140.538" gradientUnits="userSpaceOnUse"><stop offset=".067" stop-color="#8DC74F"/><stop offset=".94" stop-color="#3FAF49"/></linearGradient><linearGradient id="b" x1="150.518" y1="30.73" x2="150.518" y2="140.539" gradientUnits="userSpaceOnUse"><stop offset=".067" stop-color="#8DC74F"/><stop offset=".94" stop-color="#3FAF49"/></linearGradient><linearGradient id="c" x1="164.588" y1="30.73" x2="164.588" y2="140.538" gradientUnits="userSpaceOnUse"><stop offset=".067" stop-color="#8DC74F"/><stop offset=".94" stop-color="#3FAF49"/></linearGradient><linearGradient id="d" x1="170.037" y1="30.729" x2="170.037" y2="140.537" gradientUnits="userSpaceOnUse"><stop offset=".067" stop-color="#8DC74F"/><stop offset=".94" stop-color="#3FAF49"/></linearGradient><linearGradient id="e" x1="140.716" y1="30.729" x2="140.716" y2="140.537" gradientUnits="userSpaceOnUse"><stop offset=".067" stop-color="#8DC74F"/><stop offset=".94" stop-color="#3FAF49"/></linearGradient><linearGradient id="f" x1="168.639" y1="30.731" x2="168.639" y2="140.539" gradientUnits="userSpaceOnUse"><stop offset=".067" stop-color="#8DC74F"/><stop offset=".94" stop-color="#3FAF49"/></linearGradient><linearGradient id="g" x1="169.438" y1="30.73" x2="169.438" y2="140.538" gradientUnits="userSpaceOnUse"><stop offset=".067" stop-color="#8DC74F"/><stop offset=".94" stop-color="#3FAF49"/></linearGradient><linearGradient id="h" x1="170.152" y1="30.729" x2="170.152" y2="140.537" gradientUnits="userSpaceOnUse"><stop offset=".067" stop-color="#8DC74F"/><stop offset=".94" stop-color="#3FAF49"/></linearGradient><linearGradient id="i" x1="196.684" y1="30.731" x2="196.684" y2="140.539" gradientUnits="userSpaceOnUse"><stop offset=".067" stop-color="#8DC74F"/><stop offset=".94" stop-color="#3FAF49"/></linearGradient></defs></svg>