<svg width="136" height="60" viewBox="0 0 136 60" fill="none" xmlns="http://www.w3.org/2000/svg"><path d="M26.2819 23.67C25.7623 23.2228 25.1127 22.8875 24.3333 22.6639C23.5538 22.4123 22.7888 22.2866 22.0382 22.2866C21.201 22.2866 20.436 22.4403 19.7431 22.7477C19.0503 23.0272 18.444 23.4324 17.9244 23.9635C17.4336 24.4665 17.0439 25.0814 16.7552 25.808C16.4665 26.5347 16.3222 27.3172 16.3222 28.1557C16.3222 28.9941 16.481 29.7767 16.7985 30.5033C17.1161 31.23 17.5491 31.8588 18.0976 32.3898C18.6461 32.8929 19.2812 33.2981 20.003 33.6056C20.7535 33.885 21.5474 34.0248 22.3846 34.0248C23.3662 34.0248 24.2611 33.8291 25.0694 33.4379C25.8777 33.0187 26.5706 32.4597 27.148 31.761H24.5498V25.8919H35.6787V35.1986C35.0147 36.3445 34.2208 37.3925 33.297 38.3428C32.3732 39.2651 31.334 40.0616 30.1792 40.7323C29.0533 41.4031 27.8264 41.9201 26.4984 42.2835C25.1705 42.6468 23.7992 42.8284 22.3846 42.8284C20.3061 42.8284 18.343 42.4512 16.4954 41.6966C14.6478 40.942 13.0311 39.9079 11.6454 38.5943C10.2886 37.2807 9.20603 35.7296 8.3977 33.9409C7.61824 32.1523 7.22852 30.2238 7.22852 28.1557C7.22852 26.1434 7.60381 24.2429 8.3544 22.4543C9.10499 20.6656 10.1298 19.1145 11.4289 17.8009C12.7569 16.4594 14.3158 15.4113 16.1057 14.6567C17.9244 13.8742 19.873 13.4829 21.9516 13.4829C23.5682 13.4829 24.9684 13.6366 26.152 13.9441C27.3356 14.2515 28.3316 14.6008 29.1399 14.9921C30.0926 15.4393 30.8865 15.9284 31.5216 16.4594L26.2819 23.67Z" fill="#4971ff"></path><path d="M38.0719 14.1537H47.6852V34.7794H55.653V42.1158H38.0719V14.1537Z" fill="#4971ff"></path><path d="M55.2257 28.1557C55.2257 26.1434 55.6154 24.2429 56.3949 22.4543C57.2032 20.6656 58.2858 19.1145 59.6426 17.8009C61.0283 16.4594 62.6449 15.4113 64.4925 14.6567C66.3401 13.8742 68.3032 13.4829 70.3818 13.4829C72.4603 13.4829 74.4234 13.8742 76.271 14.6567C78.1186 15.4113 79.7208 16.4594 81.0777 17.8009C82.4634 19.1145 83.546 20.6656 84.3254 22.4543C85.1337 24.2429 85.5379 26.1434 85.5379 28.1557C85.5379 30.1679 85.1337 32.0684 84.3254 33.8571C83.546 35.6458 82.4634 37.2109 81.0777 38.5524C79.7208 39.866 78.1186 40.914 76.271 41.6966C74.4234 42.4512 72.4603 42.8284 70.3818 42.8284C68.3032 42.8284 66.3401 42.4512 64.4925 41.6966C62.6449 40.914 61.0283 39.866 59.6426 38.5524C58.2858 37.2109 57.2032 35.6458 56.3949 33.8571C55.6154 32.0684 55.2257 30.1679 55.2257 28.1557ZM64.3193 28.1557C64.3193 28.9662 64.4781 29.7347 64.7957 30.4614C65.1132 31.1601 65.5463 31.775 66.0948 32.306C66.6433 32.837 67.2784 33.2562 68.0001 33.5636C68.7507 33.8711 69.5446 34.0248 70.3818 34.0248C71.219 34.0248 71.9984 33.8711 72.7202 33.5636C73.4708 33.2562 74.1203 32.837 74.6688 32.306C75.2173 31.775 75.6503 31.1601 75.9679 30.4614C76.2855 29.7347 76.4442 28.9662 76.4442 28.1557C76.4442 27.3452 76.2855 26.5906 75.9679 25.8919C75.6503 25.1652 75.2173 24.5364 74.6688 24.0054C74.1203 23.4744 73.4708 23.0551 72.7202 22.7477C71.9984 22.4403 71.219 22.2866 70.3818 22.2866C69.5446 22.2866 68.7507 22.4403 68.0001 22.7477C67.2784 23.0551 66.6433 23.4744 66.0948 24.0054C65.5463 24.5364 65.1132 25.1652 64.7957 25.8919C64.4781 26.5906 64.3193 27.3452 64.3193 28.1557Z" fill="#4971ff"></path><path d="M87.9297 14.1537H97.8895C99.7371 14.1537 101.44 14.3912 102.999 14.8663C104.587 15.3415 105.958 16.0402 107.113 16.9625C108.268 17.8847 109.163 19.0306 109.798 20.4001C110.462 21.7416 110.794 23.2927 110.794 25.0534C110.794 26.4508 110.592 27.6386 110.188 28.6168C109.783 29.595 109.336 30.4055 108.845 31.0483C108.268 31.775 107.618 32.3898 106.897 32.8929L112.309 42.1158H101.484L97.1533 35.0309V42.1158H87.9297V14.1537ZM97.1533 27.9041H97.6296C98.7266 27.9041 99.6505 27.6666 100.401 27.1915C101.18 26.7164 101.57 25.9198 101.57 24.8019C101.57 23.684 101.18 22.8875 100.401 22.4123C99.6505 21.9372 98.7266 21.6997 97.6296 21.6997H97.1533V27.9041Z" fill="#4971ff"></path><path d="M117.813 30.0841L108.849 14.1537H119.112L122.446 20.0647L125.737 14.1537H136L127.036 30.0841V42.1158H117.813V30.0841Z" fill="#4971ff"></path><path fill-rule="evenodd" clip-rule="evenodd" d="M0.0957158 8.79742C-0.0773977 8.55282 -0.0113659 8.20918 0.263559 8.08527C1.41965 7.5642 2.17375 8.03531 2.60779 8.60376C2.81538 8.87563 3.22673 8.97209 3.54551 8.84874C3.59146 8.83096 3.6384 8.81473 3.68628 8.80011C4.77134 8.46897 5.9312 9.09584 6.2769 10.2003C6.48173 10.8547 6.3548 11.5299 5.99164 12.0404C5.77377 12.3466 5.77978 12.8287 6.12802 12.971C7.1811 13.4012 8.37427 13.4867 9.53301 13.1331C11.4 12.5633 12.6893 11.0024 13.024 9.18343C13.0591 8.99267 12.841 8.85422 12.6534 8.91148C11.6768 9.20951 10.633 8.64532 10.3218 7.65133C10.0107 6.65733 10.5501 5.60994 11.5267 5.3119C11.6613 5.27082 11.7972 5.24612 11.9323 5.23667C12.0224 5.23037 12.0763 5.10902 12.0194 5.03975C11.8622 4.84851 11.7432 4.62843 11.6692 4.39208C11.5952 4.15573 11.5677 3.90773 11.5882 3.66225C11.6087 3.41677 11.6769 3.17862 11.7888 2.96138C11.9006 2.74414 12.0541 2.55208 12.2403 2.39617C12.4265 2.24024 12.6419 2.12352 12.8741 2.05265C13.1063 1.98179 13.3508 1.95817 13.5936 1.98314C13.8364 2.00812 14.0729 2.0812 14.2894 2.19822C14.5059 2.31523 14.6982 2.47389 14.8554 2.66513C15.0126 2.85637 15.1316 3.07645 15.2056 3.3128C15.2796 3.54916 15.3071 3.79715 15.2866 4.04263C15.2792 4.13155 15.393 4.2017 15.471 4.15668C15.588 4.08921 15.7143 4.03388 15.8489 3.99279C16.8255 3.69476 17.8694 4.25894 18.1805 5.25294C18.4916 6.24693 17.9522 7.29433 16.9756 7.59237C16.788 7.64962 16.6871 7.88545 16.8251 8.0234C18.1408 9.33866 20.0972 9.90901 21.9642 9.33921C23.1232 8.9855 24.0596 8.24987 24.6831 7.30767C24.8898 6.99538 24.6249 6.59589 24.2728 6.46736C23.6771 6.24988 23.1825 5.76149 22.9766 5.1037C22.6309 3.99927 23.2302 2.83549 24.3153 2.50434C24.3613 2.49029 24.4075 2.47796 24.4537 2.46732C24.789 2.39019 25.0764 2.07545 25.0939 1.73182C25.1301 1.02299 25.4859 0.220145 26.7326 0.00716877C27.0304 -0.0437052 27.2813 0.20322 27.2781 0.501614L27.1464 12.9869C26.7012 12.8406 26.2235 12.7016 25.7133 12.5699C24.4434 12.2419 22.9412 12.0779 21.2068 12.0779C18.9767 12.0779 16.8861 12.4953 14.9348 13.3302C13.0145 14.1353 11.342 15.2535 9.91723 16.6848C9.06665 17.54 8.32565 18.4897 7.69424 19.5338L0.0957158 8.79742Z" fill="#4971ff"></path><path d="M26.7488 47.1645C27.9018 47.1645 28.9031 47.3563 29.7526 47.7398C30.6022 48.1113 31.2575 48.6507 31.7187 49.3578C32.1799 50.0529 32.4105 50.8739 32.4105 51.8207C32.4105 52.7675 32.1799 53.5885 31.7187 54.2836C31.2575 54.9787 30.6022 55.518 29.7526 55.9016C28.9031 56.2731 27.9018 56.4589 26.7488 56.4589H24.5279V59.7487H20.9233V47.1645H26.7488ZM26.5304 53.6544C27.2707 53.6544 27.829 53.4986 28.2052 53.187C28.5814 52.8634 28.7696 52.4079 28.7696 51.8207C28.7696 51.2334 28.5814 50.778 28.2052 50.4544C27.829 50.1308 27.2707 49.969 26.5304 49.969H24.5279V53.6544H26.5304Z" fill="#fff"></path><path d="M42.066 57.3038H36.6774L35.6761 59.7487H31.9988L37.624 47.1645H41.1739L46.8174 59.7487H43.0672L42.066 57.3038ZM41.0101 54.6791L39.3717 50.6522L37.7332 54.6791H41.0101Z" fill="#fff"></path><path d="M53.4099 56.4049H51.4438V59.7487H47.8393V47.1645H53.6648C54.8177 47.1645 55.819 47.3563 56.6685 47.7398C57.5181 48.1113 58.1735 48.6507 58.6347 49.3578C59.0958 50.0529 59.3264 50.8739 59.3264 51.8207C59.3264 52.7315 59.108 53.5285 58.6711 54.2117C58.2463 54.8828 57.6334 55.4102 56.8324 55.7937L59.5813 59.7487H55.7219L53.4099 56.4049ZM55.6855 51.8207C55.6855 51.2334 55.4974 50.778 55.1211 50.4544C54.7449 50.1308 54.1866 49.969 53.4463 49.969H51.4438V53.6544H53.4463C54.1866 53.6544 54.7449 53.4986 55.1211 53.187C55.4974 52.8634 55.6855 52.4079 55.6855 51.8207Z" fill="#fff"></path><path d="M63.8497 49.987H59.9357V47.1645H71.3501V49.987H67.4543V59.7487H63.8497V49.987Z" fill="#fff"></path><path d="M84.8173 47.1645V59.7487H81.8499L76.2247 53.0432V59.7487H72.6929V47.1645H75.6603L81.2856 53.8701V47.1645H84.8173Z" fill="#fff"></path><path d="M97.5909 56.9982V59.7487H87.3598V47.1645H97.3542V49.9151H90.9279V52.0364H96.5896V54.6971H90.9279V56.9982H97.5909Z" fill="#fff"></path><path d="M105.162 56.4049H103.196V59.7487H99.5911V47.1645H105.417C106.57 47.1645 107.571 47.3563 108.42 47.7398C109.27 48.1113 109.925 48.6507 110.386 49.3578C110.848 50.0529 111.078 50.8739 111.078 51.8207C111.078 52.7315 110.86 53.5285 110.423 54.2117C109.998 54.8828 109.385 55.4102 108.584 55.7937L111.333 59.7487H107.474L105.162 56.4049ZM107.437 51.8207C107.437 51.2334 107.249 50.778 106.873 50.4544C106.497 50.1308 105.938 49.969 105.198 49.969H103.196V53.6544H105.198C105.938 53.6544 106.497 53.4986 106.873 53.187C107.249 52.8634 107.437 52.4079 107.437 51.8207Z" fill="#fff"></path><path d="M117.545 60.0004C116.514 60.0004 115.512 59.8746 114.541 59.6229C113.57 59.3712 112.782 59.0356 112.175 58.6162L113.358 55.9915C113.929 56.363 114.59 56.6626 115.342 56.8903C116.095 57.118 116.835 57.2319 117.563 57.2319C118.947 57.2319 119.639 56.8903 119.639 56.2072C119.639 55.8476 119.438 55.584 119.038 55.4162C118.65 55.2364 118.019 55.0506 117.145 54.8589C116.186 54.6551 115.385 54.4394 114.742 54.2117C114.098 53.972 113.546 53.5945 113.085 53.0791C112.624 52.5638 112.393 51.8686 112.393 50.9937C112.393 50.2267 112.606 49.5375 113.03 48.9263C113.455 48.3031 114.086 47.8117 114.924 47.4522C115.773 47.0926 116.811 46.9128 118.037 46.9128C118.874 46.9128 119.699 47.0087 120.513 47.2005C121.326 47.3803 122.042 47.6499 122.661 48.0095L121.55 50.6522C120.337 50.005 119.159 49.6814 118.019 49.6814C117.302 49.6814 116.781 49.7892 116.453 50.005C116.125 50.2087 115.961 50.4784 115.961 50.8139C115.961 51.1495 116.156 51.4012 116.544 51.569C116.932 51.7368 117.557 51.9106 118.419 52.0903C119.39 52.2941 120.191 52.5158 120.822 52.7555C121.465 52.9832 122.017 53.3548 122.479 53.8701C122.952 54.3735 123.189 55.0626 123.189 55.9375C123.189 56.6926 122.976 57.3757 122.551 57.987C122.127 58.5982 121.49 59.0896 120.64 59.4611C119.79 59.8207 118.759 60.0004 117.545 60.0004Z" fill="#fff"></path></svg>