<?xml version="1.0" standalone="no"?>
<!DOCTYPE svg PUBLIC "-//W3C//DTD SVG 20010904//EN"
 "http://www.w3.org/TR/2001/REC-SVG-20010904/DTD/svg10.dtd">
<svg version="1.0" xmlns="http://www.w3.org/2000/svg"
 width="600.000000pt" height="284.000000pt" viewBox="0 0 600.000000 284.000000"
 preserveAspectRatio="xMidYMid meet">
<metadata>
Created by potrace 1.16, written by Peter Selinger 2001-2019
</metadata>
<g transform="translate(0.000000,284.000000) scale(0.100000,-0.100000)"
fill="#000000" stroke="none">
<path d="M2943 2825 c-141 -43 -237 -156 -277 -322 -19 -77 -25 -83 -96 -83
-52 0 -104 -17 -126 -41 -10 -11 -48 -36 -84 -55 -193 -101 -369 -302 -455
-519 -50 -127 -67 -241 -62 -410 5 -170 28 -268 95 -407 l38 -78 -43 0 c-41 0
-43 1 -43 30 0 25 -4 30 -25 30 -23 0 -25 4 -25 40 0 27 -5 43 -15 46 -8 4
-15 15 -15 25 0 12 -7 19 -19 19 -11 0 -21 8 -23 19 -2 14 -16 2 -55 -50 -54
-71 -65 -99 -38 -99 8 0 15 -9 15 -20 0 -11 -7 -20 -15 -20 -8 0 -15 9 -15 20
0 29 -24 25 -53 -10 -17 -19 -35 -30 -52 -30 -14 0 -37 -11 -50 -25 l-25 -24
0 -311 0 -311 25 -24 24 -25 1306 0 1306 0 24 25 25 24 0 311 0 311 -25 24
c-13 14 -33 25 -45 25 -13 0 -20 7 -20 20 0 11 -28 55 -62 97 -55 68 -63 75
-66 54 -2 -13 2 -27 8 -31 14 -8 4 -50 -11 -50 -5 0 -9 -6 -9 -14 0 -8 -13
-17 -29 -21 -20 -4 -31 -13 -33 -28 -3 -20 -9 -22 -85 -25 l-81 -3 34 68 c43
85 78 195 94 295 18 110 8 311 -19 418 -22 85 -92 245 -130 298 -13 19 -17 33
-10 43 31 49 -16 118 -105 155 -52 22 -52 21 -30 130 22 103 14 187 -25 270
-60 129 -154 196 -328 234 -105 23 -208 25 -270 5z m-412 -669 c116 -110 274
-185 498 -237 185 -42 406 -37 503 12 l37 19 25 -33 c38 -49 93 -173 118 -262
18 -66 22 -106 21 -225 0 -129 -3 -155 -27 -234 -27 -89 -80 -205 -117 -258
-17 -23 -28 -28 -61 -28 -22 0 -38 3 -36 8 2 4 20 32 41 63 41 61 111 213 99
216 -4 2 -97 -19 -207 -45 l-200 -48 -40 -97 c-39 -94 -41 -97 -72 -97 -30 0
-32 3 -38 43 -9 59 -9 74 0 144 6 52 5 64 -8 69 -18 7 -48 -8 -99 -49 -34 -27
-39 -28 -73 -17 -29 10 -46 10 -77 1 -33 -10 -43 -10 -61 3 -122 89 -132 88
-122 -18 4 -41 4 -97 0 -125 -6 -47 -9 -51 -35 -51 -25 0 -30 7 -68 98 l-40
97 -44 9 c-24 5 -118 28 -210 51 -160 39 -168 40 -162 20 12 -44 77 -171 109
-217 19 -26 35 -51 35 -54 0 -3 -19 -4 -42 -2 -42 3 -44 5 -89 79 -86 144
-125 310 -116 489 7 126 27 208 77 316 49 107 104 187 182 263 60 60 198 161
220 161 6 0 41 -29 79 -64z m1446 -1469 c2 -3 1 -16 -3 -31 -6 -25 -8 -25 -63
-20 -45 5 -59 3 -70 -10 -18 -22 -3 -39 48 -54 65 -20 91 -47 91 -96 0 -82
-51 -114 -156 -101 -52 6 -54 8 -54 37 l0 30 53 -6 c65 -8 87 -1 87 29 0 16
-9 26 -32 35 -77 30 -97 43 -108 70 -20 49 2 104 50 124 16 6 149 0 157 -7z
m-2046 -26 c34 -34 39 -92 14 -141 -20 -38 -43 -50 -99 -50 l-46 0 0 -45 c0
-45 0 -45 -35 -45 l-35 0 0 155 0 155 86 0 c81 0 87 -1 115 -29z m254 7 c3
-13 17 -75 31 -138 13 -63 27 -123 30 -133 5 -16 1 -18 -33 -15 -31 2 -39 7
-41 26 -3 20 -9 22 -58 22 -51 0 -54 -1 -54 -25 0 -22 -4 -25 -39 -25 l-38 0
17 78 c10 42 26 112 35 155 l17 77 64 0 c58 0 64 -2 69 -22z m322 7 c43 -30
48 -132 8 -165 -12 -10 -12 -19 5 -63 11 -29 20 -56 20 -60 0 -5 -17 -7 -37
-5 -35 3 -38 6 -52 51 -13 41 -18 47 -43 47 -27 0 -28 -2 -28 -50 l0 -50 -35
0 -35 0 0 155 0 155 88 0 c62 0 94 -4 109 -15z m313 -15 c0 -29 -2 -30 -45
-30 l-45 0 0 -125 0 -125 -35 0 -35 0 0 125 0 125 -40 0 c-38 0 -40 2 -40 30
l0 30 120 0 120 0 0 -30z m195 -80 l30 -104 3 107 3 107 34 0 35 0 0 -155 0
-155 -53 0 -54 0 -36 118 -36 117 0 -117 -1 -118 -35 0 -35 0 0 155 0 156 58
-3 57 -3 30 -105z m405 80 l0 -30 -70 0 -70 0 0 -30 c0 -30 1 -30 55 -30 54 0
55 0 55 -30 0 -30 -1 -30 -55 -30 l-55 0 0 -35 0 -35 70 0 70 0 0 -30 0 -30
-105 0 -105 0 0 155 0 155 105 0 105 0 0 -30z m257 15 c43 -30 48 -132 8 -165
-12 -10 -12 -19 5 -63 11 -29 20 -56 20 -60 0 -5 -17 -7 -37 -5 -35 3 -38 6
-52 51 -13 41 -18 47 -43 47 -27 0 -28 -2 -28 -50 l0 -50 -35 0 -35 0 0 155 0
155 88 0 c62 0 94 -4 109 -15z"/>
<path d="M2618 1419 c-95 -98 -99 -101 -135 -97 -21 3 -46 8 -55 12 -23 11
-24 -23 -2 -65 30 -59 114 -74 226 -39 64 19 170 81 197 113 12 15 17 13 60
-22 148 -124 354 -148 396 -47 21 49 20 70 -2 60 -10 -4 -35 -9 -56 -12 -37
-4 -41 -1 -136 97 l-98 101 -49 0 c-27 -1 -60 -7 -74 -14 -21 -12 -29 -12 -52
0 -15 8 -48 14 -74 14 -48 0 -49 -1 -146 -101z"/>
<path d="M3320 161 c0 -5 -13 -11 -29 -14 -27 -6 -28 -8 -27 -66 l1 -61 62 0
63 0 -6 30 c-4 19 -2 30 5 30 6 0 11 -9 11 -20 0 -15 7 -20 25 -20 14 0 25 -4
25 -10 0 -6 45 -10 114 -10 l115 0 -10 33 c-5 17 -19 40 -31 50 -13 10 -36 29
-52 43 -32 28 -46 30 -46 9 0 -8 -9 -15 -20 -15 -11 0 -20 7 -20 15 0 9 -9 15
-25 15 -22 0 -25 -4 -25 -35 0 -30 -3 -35 -24 -35 -19 0 -25 7 -30 35 -6 32
-10 35 -41 35 -19 0 -35 -4 -35 -9z"/>
</g>
</svg>
